<mxfile host="app.diagrams.net" modified="2022-10-25T23:31:13.799Z" agent="5.0 (Windows NT 6.1; WOW64) AppleWebKit/537.36 (KHTML, like Gecko) Chrome/106.0.0.0 Safari/537.36" etag="JwTx71XzESbwezaGyOA-" version="20.5.1" type="github">
  <diagram id="xVi8GQk_vyaAvHEH5PSL" name="Página-1">
    <mxGraphModel dx="760" dy="423" grid="1" gridSize="10" guides="1" tooltips="1" connect="1" arrows="1" fold="1" page="1" pageScale="1" pageWidth="827" pageHeight="1169" math="0" shadow="0">
      <root>
        <mxCell id="0" />
        <mxCell id="1" parent="0" />
        <mxCell id="AewGbf2-xbqCJhBK4pwv-32" value="&lt;font style=&quot;font-size: 10px;&quot;&gt;Expansão de Vendas&lt;/font&gt;" style="html=1;strokeWidth=1;fontSize=8;verticalAlign=top;" vertex="1" parent="1">
          <mxGeometry x="110" y="60" width="403" height="340" as="geometry" />
        </mxCell>
        <mxCell id="AewGbf2-xbqCJhBK4pwv-1" value="Cliente" style="shape=umlActor;verticalLabelPosition=bottom;verticalAlign=top;html=1;outlineConnect=0;" vertex="1" parent="1">
          <mxGeometry x="50" y="190" width="30" height="60" as="geometry" />
        </mxCell>
        <mxCell id="AewGbf2-xbqCJhBK4pwv-2" value="Vendedor" style="shape=umlActor;verticalLabelPosition=bottom;verticalAlign=top;html=1;outlineConnect=0;" vertex="1" parent="1">
          <mxGeometry x="530" y="190" width="30" height="60" as="geometry" />
        </mxCell>
        <mxCell id="AewGbf2-xbqCJhBK4pwv-5" value="Realiza Pedido" style="ellipse;whiteSpace=wrap;html=1;strokeWidth=1;perimeterSpacing=0;" vertex="1" parent="1">
          <mxGeometry x="140" y="120" width="70" height="30" as="geometry" />
        </mxCell>
        <mxCell id="AewGbf2-xbqCJhBK4pwv-6" value="Aprova Venda" style="ellipse;whiteSpace=wrap;html=1;strokeWidth=1;perimeterSpacing=0;" vertex="1" parent="1">
          <mxGeometry x="140" y="194" width="70" height="30" as="geometry" />
        </mxCell>
        <mxCell id="AewGbf2-xbqCJhBK4pwv-7" value="Informa Dados" style="ellipse;whiteSpace=wrap;html=1;strokeWidth=1;perimeterSpacing=0;" vertex="1" parent="1">
          <mxGeometry x="140" y="260" width="70" height="30" as="geometry" />
        </mxCell>
        <mxCell id="AewGbf2-xbqCJhBK4pwv-8" value="" style="endArrow=open;endFill=1;endSize=12;html=1;rounded=0;exitX=1;exitY=0.3333333333333333;exitDx=0;exitDy=0;exitPerimeter=0;entryX=0;entryY=0.5;entryDx=0;entryDy=0;" edge="1" parent="1" source="AewGbf2-xbqCJhBK4pwv-1" target="AewGbf2-xbqCJhBK4pwv-5">
          <mxGeometry width="160" relative="1" as="geometry">
            <mxPoint x="160" y="190" as="sourcePoint" />
            <mxPoint x="320" y="190" as="targetPoint" />
          </mxGeometry>
        </mxCell>
        <mxCell id="AewGbf2-xbqCJhBK4pwv-9" value="" style="endArrow=open;endFill=1;endSize=12;html=1;rounded=0;exitX=1;exitY=0.3333333333333333;exitDx=0;exitDy=0;exitPerimeter=0;entryX=0;entryY=0.5;entryDx=0;entryDy=0;" edge="1" parent="1" source="AewGbf2-xbqCJhBK4pwv-1" target="AewGbf2-xbqCJhBK4pwv-6">
          <mxGeometry width="160" relative="1" as="geometry">
            <mxPoint x="110" y="220" as="sourcePoint" />
            <mxPoint x="150" y="165" as="targetPoint" />
          </mxGeometry>
        </mxCell>
        <mxCell id="AewGbf2-xbqCJhBK4pwv-10" value="" style="endArrow=open;endFill=1;endSize=12;html=1;rounded=0;entryX=0;entryY=0.5;entryDx=0;entryDy=0;exitX=1;exitY=0.3333333333333333;exitDx=0;exitDy=0;exitPerimeter=0;" edge="1" parent="1" source="AewGbf2-xbqCJhBK4pwv-1" target="AewGbf2-xbqCJhBK4pwv-7">
          <mxGeometry width="160" relative="1" as="geometry">
            <mxPoint x="100" y="220" as="sourcePoint" />
            <mxPoint x="149.9999999999999" y="219" as="targetPoint" />
          </mxGeometry>
        </mxCell>
        <mxCell id="AewGbf2-xbqCJhBK4pwv-11" value="Cadastra Cliente" style="ellipse;whiteSpace=wrap;html=1;strokeWidth=1;perimeterSpacing=0;" vertex="1" parent="1">
          <mxGeometry x="400" y="250" width="70" height="30" as="geometry" />
        </mxCell>
        <mxCell id="AewGbf2-xbqCJhBK4pwv-12" value="Cadastra Pedido" style="ellipse;whiteSpace=wrap;html=1;strokeWidth=1;perimeterSpacing=0;" vertex="1" parent="1">
          <mxGeometry x="400" y="100" width="70" height="30" as="geometry" />
        </mxCell>
        <mxCell id="AewGbf2-xbqCJhBK4pwv-13" value="Realiza Venda&lt;span style=&quot;color: rgba(0, 0, 0, 0); font-family: monospace; font-size: 0px; text-align: start;&quot;&gt;%3CmxGraphModel%3E%3Croot%3E%3CmxCell%20id%3D%220%22%2F%3E%3CmxCell%20id%3D%221%22%20parent%3D%220%22%2F%3E%3CmxCell%20id%3D%222%22%20value%3D%22Cadastra%20Pedido%22%20style%3D%22ellipse%3BwhiteSpace%3Dwrap%3Bhtml%3D1%3BstrokeWidth%3D1%3BperimeterSpacing%3D0%3B%22%20vertex%3D%221%22%20parent%3D%221%22%3E%3CmxGeometry%20x%3D%22340%22%20y%3D%22130%22%20width%3D%2270%22%20height%3D%2230%22%20as%3D%22geometry%22%2F%3E%3C%2FmxCell%3E%3C%2Froot%3E%3C%2FmxGraphModel%3E&lt;/span&gt;" style="ellipse;whiteSpace=wrap;html=1;strokeWidth=1;perimeterSpacing=0;" vertex="1" parent="1">
          <mxGeometry x="400" y="180" width="70" height="30" as="geometry" />
        </mxCell>
        <mxCell id="AewGbf2-xbqCJhBK4pwv-27" style="rounded=0;orthogonalLoop=1;jettySize=auto;html=1;entryX=0.35;entryY=0.029;entryDx=0;entryDy=0;entryPerimeter=0;fontSize=11;endArrow=blockThin;endFill=0;" edge="1" parent="1" source="AewGbf2-xbqCJhBK4pwv-14" target="AewGbf2-xbqCJhBK4pwv-13">
          <mxGeometry relative="1" as="geometry" />
        </mxCell>
        <mxCell id="AewGbf2-xbqCJhBK4pwv-28" value="&lt;font style=&quot;font-size: 8px;&quot;&gt;Extends&lt;/font&gt;" style="edgeLabel;html=1;align=center;verticalAlign=middle;resizable=0;points=[];fontSize=11;" vertex="1" connectable="0" parent="AewGbf2-xbqCJhBK4pwv-27">
          <mxGeometry x="-0.3124" relative="1" as="geometry">
            <mxPoint as="offset" />
          </mxGeometry>
        </mxCell>
        <mxCell id="AewGbf2-xbqCJhBK4pwv-14" value="&lt;font style=&quot;line-height: 0.2; font-size: 11px;&quot;&gt;Venda Agregada&lt;/font&gt;" style="ellipse;whiteSpace=wrap;html=1;strokeWidth=1;perimeterSpacing=0;" vertex="1" parent="1">
          <mxGeometry x="260" y="150" width="90" height="30" as="geometry" />
        </mxCell>
        <mxCell id="AewGbf2-xbqCJhBK4pwv-29" style="edgeStyle=none;rounded=0;orthogonalLoop=1;jettySize=auto;html=1;entryX=0.5;entryY=1;entryDx=0;entryDy=0;fontSize=8;endArrow=blockThin;endFill=0;" edge="1" parent="1" source="AewGbf2-xbqCJhBK4pwv-15" target="AewGbf2-xbqCJhBK4pwv-11">
          <mxGeometry relative="1" as="geometry" />
        </mxCell>
        <mxCell id="AewGbf2-xbqCJhBK4pwv-30" value="Extends" style="edgeLabel;html=1;align=center;verticalAlign=middle;resizable=0;points=[];fontSize=8;" vertex="1" connectable="0" parent="AewGbf2-xbqCJhBK4pwv-29">
          <mxGeometry x="0.2413" y="1" relative="1" as="geometry">
            <mxPoint as="offset" />
          </mxGeometry>
        </mxCell>
        <mxCell id="AewGbf2-xbqCJhBK4pwv-15" value="Atualiza Perfil Consumo" style="ellipse;whiteSpace=wrap;html=1;strokeWidth=1;perimeterSpacing=0;" vertex="1" parent="1">
          <mxGeometry x="390" y="330" width="90" height="40" as="geometry" />
        </mxCell>
        <mxCell id="AewGbf2-xbqCJhBK4pwv-16" value="" style="endArrow=open;endFill=1;endSize=12;html=1;rounded=0;exitX=0;exitY=0.3333333333333333;exitDx=0;exitDy=0;exitPerimeter=0;entryX=1;entryY=0.5;entryDx=0;entryDy=0;" edge="1" parent="1" source="AewGbf2-xbqCJhBK4pwv-2" target="AewGbf2-xbqCJhBK4pwv-12">
          <mxGeometry width="160" relative="1" as="geometry">
            <mxPoint x="177" y="220" as="sourcePoint" />
            <mxPoint x="217" y="218.99999999999994" as="targetPoint" />
          </mxGeometry>
        </mxCell>
        <mxCell id="AewGbf2-xbqCJhBK4pwv-17" value="" style="endArrow=open;endFill=1;endSize=12;html=1;rounded=0;exitX=0;exitY=0.5;exitDx=0;exitDy=0;entryX=1;entryY=0.5;entryDx=0;entryDy=0;dashed=1;" edge="1" parent="1" source="AewGbf2-xbqCJhBK4pwv-12" target="AewGbf2-xbqCJhBK4pwv-5">
          <mxGeometry width="160" relative="1" as="geometry">
            <mxPoint x="517" y="200" as="sourcePoint" />
            <mxPoint x="480" y="125" as="targetPoint" />
          </mxGeometry>
        </mxCell>
        <mxCell id="AewGbf2-xbqCJhBK4pwv-18" value="Cliente precisa realizar o pedido" style="edgeLabel;html=1;align=center;verticalAlign=middle;resizable=0;points=[];rotation=-5;" vertex="1" connectable="0" parent="AewGbf2-xbqCJhBK4pwv-17">
          <mxGeometry x="-0.5177" y="-2" relative="1" as="geometry">
            <mxPoint x="-43" y="5" as="offset" />
          </mxGeometry>
        </mxCell>
        <mxCell id="AewGbf2-xbqCJhBK4pwv-19" value="" style="endArrow=open;endFill=1;endSize=12;html=1;rounded=0;entryX=1;entryY=0.5;entryDx=0;entryDy=0;" edge="1" parent="1" target="AewGbf2-xbqCJhBK4pwv-13">
          <mxGeometry width="160" relative="1" as="geometry">
            <mxPoint x="530" y="210" as="sourcePoint" />
            <mxPoint x="480" y="145" as="targetPoint" />
          </mxGeometry>
        </mxCell>
        <mxCell id="AewGbf2-xbqCJhBK4pwv-21" value="" style="endArrow=open;endFill=1;endSize=12;html=1;rounded=0;exitX=0;exitY=0.5;exitDx=0;exitDy=0;entryX=1;entryY=0.5;entryDx=0;entryDy=0;dashed=1;" edge="1" parent="1" source="AewGbf2-xbqCJhBK4pwv-13" target="AewGbf2-xbqCJhBK4pwv-6">
          <mxGeometry width="160" relative="1" as="geometry">
            <mxPoint x="400" y="190" as="sourcePoint" />
            <mxPoint x="210" y="210" as="targetPoint" />
          </mxGeometry>
        </mxCell>
        <mxCell id="AewGbf2-xbqCJhBK4pwv-22" value="Cliente precisa aprovar venda" style="edgeLabel;html=1;align=center;verticalAlign=middle;resizable=0;points=[];rotation=-5;" vertex="1" connectable="0" parent="AewGbf2-xbqCJhBK4pwv-21">
          <mxGeometry x="-0.5177" y="-2" relative="1" as="geometry">
            <mxPoint x="-43" y="5" as="offset" />
          </mxGeometry>
        </mxCell>
        <mxCell id="AewGbf2-xbqCJhBK4pwv-23" value="" style="endArrow=open;endFill=1;endSize=12;html=1;rounded=0;exitX=0;exitY=0.5;exitDx=0;exitDy=0;entryX=1;entryY=0.5;entryDx=0;entryDy=0;dashed=1;" edge="1" parent="1" source="AewGbf2-xbqCJhBK4pwv-11" target="AewGbf2-xbqCJhBK4pwv-7">
          <mxGeometry width="160" relative="1" as="geometry">
            <mxPoint x="400" y="258" as="sourcePoint" />
            <mxPoint x="210" y="272" as="targetPoint" />
          </mxGeometry>
        </mxCell>
        <mxCell id="AewGbf2-xbqCJhBK4pwv-24" value="Cliente precisa informar dados" style="edgeLabel;html=1;align=center;verticalAlign=middle;resizable=0;points=[];rotation=-3.5;" vertex="1" connectable="0" parent="AewGbf2-xbqCJhBK4pwv-23">
          <mxGeometry x="-0.5177" y="-2" relative="1" as="geometry">
            <mxPoint x="-43" y="5" as="offset" />
          </mxGeometry>
        </mxCell>
        <mxCell id="AewGbf2-xbqCJhBK4pwv-25" value="" style="endArrow=open;endFill=1;endSize=12;html=1;rounded=0;entryX=1;entryY=0.5;entryDx=0;entryDy=0;exitX=0;exitY=0.3333333333333333;exitDx=0;exitDy=0;exitPerimeter=0;" edge="1" parent="1" source="AewGbf2-xbqCJhBK4pwv-2" target="AewGbf2-xbqCJhBK4pwv-11">
          <mxGeometry width="160" relative="1" as="geometry">
            <mxPoint x="510" y="210" as="sourcePoint" />
            <mxPoint x="480" y="205" as="targetPoint" />
          </mxGeometry>
        </mxCell>
      </root>
    </mxGraphModel>
  </diagram>
</mxfile>
